<mxfile host="app.diagrams.net" agent="Mozilla/5.0 (Windows NT 10.0; Win64; x64) AppleWebKit/537.36 (KHTML, like Gecko) Chrome/131.0.0.0 Safari/537.36 Edg/131.0.0.0" version="25.0.3">
  <diagram name="Page-1" id="-Hd6Si_IjfsiiolitIWK">
    <mxGraphModel dx="1951" dy="1074" grid="1" gridSize="10" guides="1" tooltips="1" connect="1" arrows="1" fold="1" page="1" pageScale="1" pageWidth="850" pageHeight="1100" math="0" shadow="0">
      <root>
        <mxCell id="0" />
        <mxCell id="1" parent="0" />
        <mxCell id="XonXQQ8sFQjfn5fXN3I9-1" style="edgeStyle=orthogonalEdgeStyle;rounded=0;orthogonalLoop=1;jettySize=auto;html=1;" edge="1" parent="1" source="XonXQQ8sFQjfn5fXN3I9-2">
          <mxGeometry relative="1" as="geometry">
            <mxPoint x="750" y="260" as="targetPoint" />
          </mxGeometry>
        </mxCell>
        <mxCell id="XonXQQ8sFQjfn5fXN3I9-2" value="Retrieval" style="rounded=1;whiteSpace=wrap;html=1;" vertex="1" parent="1">
          <mxGeometry x="300" y="240" width="80" height="40" as="geometry" />
        </mxCell>
        <mxCell id="XonXQQ8sFQjfn5fXN3I9-3" style="edgeStyle=orthogonalEdgeStyle;rounded=0;orthogonalLoop=1;jettySize=auto;html=1;exitX=0.855;exitY=0;exitDx=0;exitDy=2.271659291585292;exitPerimeter=0;entryX=0.75;entryY=1;entryDx=0;entryDy=0;" edge="1" parent="1" source="XonXQQ8sFQjfn5fXN3I9-4" target="XonXQQ8sFQjfn5fXN3I9-2">
          <mxGeometry relative="1" as="geometry" />
        </mxCell>
        <mxCell id="XonXQQ8sFQjfn5fXN3I9-4" value="VDB" style="shape=cylinder3;whiteSpace=wrap;html=1;boundedLbl=1;backgroundOutline=1;size=7.833307902018248;" vertex="1" parent="1">
          <mxGeometry x="312.5" y="330" width="55" height="40" as="geometry" />
        </mxCell>
        <mxCell id="XonXQQ8sFQjfn5fXN3I9-5" style="edgeStyle=orthogonalEdgeStyle;rounded=0;orthogonalLoop=1;jettySize=auto;html=1;entryX=0.145;entryY=0;entryDx=0;entryDy=2.271659291585292;entryPerimeter=0;exitX=0.25;exitY=1;exitDx=0;exitDy=0;" edge="1" parent="1" source="XonXQQ8sFQjfn5fXN3I9-2" target="XonXQQ8sFQjfn5fXN3I9-4">
          <mxGeometry relative="1" as="geometry" />
        </mxCell>
        <mxCell id="XonXQQ8sFQjfn5fXN3I9-6" value="" style="edgeStyle=orthogonalEdgeStyle;rounded=0;orthogonalLoop=1;jettySize=auto;html=1;" edge="1" parent="1" source="XonXQQ8sFQjfn5fXN3I9-7" target="XonXQQ8sFQjfn5fXN3I9-2">
          <mxGeometry relative="1" as="geometry" />
        </mxCell>
        <mxCell id="XonXQQ8sFQjfn5fXN3I9-7" value="C&lt;sup&gt;1&lt;/sup&gt;" style="ellipse;whiteSpace=wrap;html=1;aspect=fixed;fillColor=#f8cecc;strokeColor=#b85450;" vertex="1" parent="1">
          <mxGeometry x="230" y="245" width="30" height="30" as="geometry" />
        </mxCell>
        <mxCell id="XonXQQ8sFQjfn5fXN3I9-8" value="C&lt;sup&gt;1&lt;/sup&gt;&lt;sub&gt;1&lt;/sub&gt;" style="ellipse;whiteSpace=wrap;html=1;aspect=fixed;fillColor=#f8cecc;strokeColor=#b85450;" vertex="1" parent="1">
          <mxGeometry x="420" y="220" width="30" height="30" as="geometry" />
        </mxCell>
        <mxCell id="XonXQQ8sFQjfn5fXN3I9-9" value="D&lt;sup&gt;1&lt;/sup&gt;&lt;span style=&quot;font-size: 10px;&quot;&gt;1&lt;/span&gt;" style="ellipse;whiteSpace=wrap;html=1;aspect=fixed;fillColor=#dae8fc;strokeColor=#6c8ebf;" vertex="1" parent="1">
          <mxGeometry x="460" y="220" width="30" height="30" as="geometry" />
        </mxCell>
        <mxCell id="XonXQQ8sFQjfn5fXN3I9-10" value="C&lt;sup&gt;1&lt;/sup&gt;&lt;sub&gt;2&lt;/sub&gt;" style="ellipse;whiteSpace=wrap;html=1;aspect=fixed;fillColor=#f8cecc;strokeColor=#b85450;" vertex="1" parent="1">
          <mxGeometry x="500" y="220" width="30" height="30" as="geometry" />
        </mxCell>
        <mxCell id="XonXQQ8sFQjfn5fXN3I9-11" value="D&lt;sup&gt;1&lt;/sup&gt;&lt;sub&gt;2&lt;/sub&gt;" style="ellipse;whiteSpace=wrap;html=1;aspect=fixed;fillColor=#dae8fc;strokeColor=#6c8ebf;" vertex="1" parent="1">
          <mxGeometry x="540" y="220" width="30" height="30" as="geometry" />
        </mxCell>
        <mxCell id="XonXQQ8sFQjfn5fXN3I9-12" value="C&lt;sup&gt;1&lt;/sup&gt;&lt;sub&gt;n&lt;/sub&gt;" style="ellipse;whiteSpace=wrap;html=1;aspect=fixed;fillColor=#f8cecc;strokeColor=#b85450;" vertex="1" parent="1">
          <mxGeometry x="600" y="220" width="30" height="30" as="geometry" />
        </mxCell>
        <mxCell id="XonXQQ8sFQjfn5fXN3I9-13" value="D&lt;sup&gt;1&lt;/sup&gt;&lt;sub&gt;n&lt;/sub&gt;" style="ellipse;whiteSpace=wrap;html=1;aspect=fixed;fillColor=#dae8fc;strokeColor=#6c8ebf;" vertex="1" parent="1">
          <mxGeometry x="640" y="220" width="30" height="30" as="geometry" />
        </mxCell>
        <mxCell id="XonXQQ8sFQjfn5fXN3I9-14" value="&lt;b&gt;&lt;font style=&quot;font-size: 19px;&quot;&gt;...&lt;/font&gt;&lt;/b&gt;" style="text;html=1;align=center;verticalAlign=middle;resizable=0;points=[];autosize=1;strokeColor=none;fillColor=none;" vertex="1" parent="1">
          <mxGeometry x="565" y="210" width="40" height="40" as="geometry" />
        </mxCell>
        <mxCell id="XonXQQ8sFQjfn5fXN3I9-15" value="C&lt;sup&gt;1&lt;/sup&gt;" style="ellipse;whiteSpace=wrap;html=1;aspect=fixed;fillColor=#f8cecc;strokeColor=#b85450;" vertex="1" parent="1">
          <mxGeometry x="680" y="220" width="30" height="30" as="geometry" />
        </mxCell>
        <mxCell id="XonXQQ8sFQjfn5fXN3I9-16" value="Training Data" style="shape=table;startSize=30;container=1;collapsible=0;childLayout=tableLayout;" vertex="1" parent="1">
          <mxGeometry x="750" y="200" width="380" height="200" as="geometry" />
        </mxCell>
        <mxCell id="XonXQQ8sFQjfn5fXN3I9-17" value="" style="shape=tableRow;horizontal=0;startSize=0;swimlaneHead=0;swimlaneBody=0;strokeColor=inherit;top=0;left=0;bottom=0;right=0;collapsible=0;dropTarget=0;fillColor=none;points=[[0,0.5],[1,0.5]];portConstraint=eastwest;" vertex="1" parent="XonXQQ8sFQjfn5fXN3I9-16">
          <mxGeometry y="30" width="380" height="40" as="geometry" />
        </mxCell>
        <mxCell id="XonXQQ8sFQjfn5fXN3I9-18" value="Input" style="shape=partialRectangle;html=1;whiteSpace=wrap;connectable=0;strokeColor=inherit;overflow=hidden;fillColor=none;top=0;left=0;bottom=0;right=0;pointerEvents=1;" vertex="1" parent="XonXQQ8sFQjfn5fXN3I9-17">
          <mxGeometry width="327" height="40" as="geometry">
            <mxRectangle width="327" height="40" as="alternateBounds" />
          </mxGeometry>
        </mxCell>
        <mxCell id="XonXQQ8sFQjfn5fXN3I9-19" value="Output" style="shape=partialRectangle;html=1;whiteSpace=wrap;connectable=0;strokeColor=inherit;overflow=hidden;fillColor=none;top=0;left=0;bottom=0;right=0;pointerEvents=1;" vertex="1" parent="XonXQQ8sFQjfn5fXN3I9-17">
          <mxGeometry x="327" width="53" height="40" as="geometry">
            <mxRectangle width="53" height="40" as="alternateBounds" />
          </mxGeometry>
        </mxCell>
        <mxCell id="XonXQQ8sFQjfn5fXN3I9-20" value="" style="shape=tableRow;horizontal=0;startSize=0;swimlaneHead=0;swimlaneBody=0;strokeColor=inherit;top=0;left=0;bottom=0;right=0;collapsible=0;dropTarget=0;fillColor=none;points=[[0,0.5],[1,0.5]];portConstraint=eastwest;" vertex="1" parent="XonXQQ8sFQjfn5fXN3I9-16">
          <mxGeometry y="70" width="380" height="40" as="geometry" />
        </mxCell>
        <mxCell id="XonXQQ8sFQjfn5fXN3I9-21" value="" style="shape=partialRectangle;html=1;whiteSpace=wrap;connectable=0;strokeColor=inherit;overflow=hidden;fillColor=none;top=0;left=0;bottom=0;right=0;pointerEvents=1;" vertex="1" parent="XonXQQ8sFQjfn5fXN3I9-20">
          <mxGeometry width="327" height="40" as="geometry">
            <mxRectangle width="327" height="40" as="alternateBounds" />
          </mxGeometry>
        </mxCell>
        <mxCell id="XonXQQ8sFQjfn5fXN3I9-22" value="" style="shape=partialRectangle;html=1;whiteSpace=wrap;connectable=0;strokeColor=inherit;overflow=hidden;fillColor=none;top=0;left=0;bottom=0;right=0;pointerEvents=1;" vertex="1" parent="XonXQQ8sFQjfn5fXN3I9-20">
          <mxGeometry x="327" width="53" height="40" as="geometry">
            <mxRectangle width="53" height="40" as="alternateBounds" />
          </mxGeometry>
        </mxCell>
        <mxCell id="XonXQQ8sFQjfn5fXN3I9-23" value="" style="shape=tableRow;horizontal=0;startSize=0;swimlaneHead=0;swimlaneBody=0;strokeColor=inherit;top=0;left=0;bottom=0;right=0;collapsible=0;dropTarget=0;fillColor=none;points=[[0,0.5],[1,0.5]];portConstraint=eastwest;" vertex="1" parent="XonXQQ8sFQjfn5fXN3I9-16">
          <mxGeometry y="110" width="380" height="50" as="geometry" />
        </mxCell>
        <mxCell id="XonXQQ8sFQjfn5fXN3I9-24" value="" style="shape=partialRectangle;html=1;whiteSpace=wrap;connectable=0;strokeColor=inherit;overflow=hidden;fillColor=none;top=0;left=0;bottom=0;right=0;pointerEvents=1;" vertex="1" parent="XonXQQ8sFQjfn5fXN3I9-23">
          <mxGeometry width="327" height="50" as="geometry">
            <mxRectangle width="327" height="50" as="alternateBounds" />
          </mxGeometry>
        </mxCell>
        <mxCell id="XonXQQ8sFQjfn5fXN3I9-25" value="" style="shape=partialRectangle;html=1;whiteSpace=wrap;connectable=0;strokeColor=inherit;overflow=hidden;fillColor=none;top=0;left=0;bottom=0;right=0;pointerEvents=1;" vertex="1" parent="XonXQQ8sFQjfn5fXN3I9-23">
          <mxGeometry x="327" width="53" height="50" as="geometry">
            <mxRectangle width="53" height="50" as="alternateBounds" />
          </mxGeometry>
        </mxCell>
        <mxCell id="XonXQQ8sFQjfn5fXN3I9-26" value="" style="shape=tableRow;horizontal=0;startSize=0;swimlaneHead=0;swimlaneBody=0;strokeColor=inherit;top=0;left=0;bottom=0;right=0;collapsible=0;dropTarget=0;fillColor=none;points=[[0,0.5],[1,0.5]];portConstraint=eastwest;" vertex="1" parent="XonXQQ8sFQjfn5fXN3I9-16">
          <mxGeometry y="160" width="380" height="40" as="geometry" />
        </mxCell>
        <mxCell id="XonXQQ8sFQjfn5fXN3I9-27" value="" style="shape=partialRectangle;html=1;whiteSpace=wrap;connectable=0;strokeColor=inherit;overflow=hidden;fillColor=none;top=0;left=0;bottom=0;right=0;pointerEvents=1;" vertex="1" parent="XonXQQ8sFQjfn5fXN3I9-26">
          <mxGeometry width="327" height="40" as="geometry">
            <mxRectangle width="327" height="40" as="alternateBounds" />
          </mxGeometry>
        </mxCell>
        <mxCell id="XonXQQ8sFQjfn5fXN3I9-28" value="" style="shape=partialRectangle;html=1;whiteSpace=wrap;connectable=0;strokeColor=inherit;overflow=hidden;fillColor=none;top=0;left=0;bottom=0;right=0;pointerEvents=1;" vertex="1" parent="XonXQQ8sFQjfn5fXN3I9-26">
          <mxGeometry x="327" width="53" height="40" as="geometry">
            <mxRectangle width="53" height="40" as="alternateBounds" />
          </mxGeometry>
        </mxCell>
        <mxCell id="XonXQQ8sFQjfn5fXN3I9-29" value="&lt;b&gt;&lt;font style=&quot;font-size: 19px;&quot;&gt;...&lt;/font&gt;&lt;/b&gt;" style="text;html=1;align=center;verticalAlign=middle;resizable=0;points=[];autosize=1;strokeColor=none;fillColor=none;rotation=90;" vertex="1" parent="1">
          <mxGeometry x="760" y="350" width="40" height="40" as="geometry" />
        </mxCell>
        <mxCell id="XonXQQ8sFQjfn5fXN3I9-30" value="&lt;b&gt;&lt;font style=&quot;font-size: 19px;&quot;&gt;...&lt;/font&gt;&lt;/b&gt;" style="text;html=1;align=center;verticalAlign=middle;resizable=0;points=[];autosize=1;strokeColor=none;fillColor=none;rotation=90;" vertex="1" parent="1">
          <mxGeometry x="880" y="350" width="40" height="40" as="geometry" />
        </mxCell>
        <mxCell id="XonXQQ8sFQjfn5fXN3I9-31" value="&lt;b&gt;&lt;font style=&quot;font-size: 19px;&quot;&gt;...&lt;/font&gt;&lt;/b&gt;" style="text;html=1;align=center;verticalAlign=middle;resizable=0;points=[];autosize=1;strokeColor=none;fillColor=none;rotation=90;" vertex="1" parent="1">
          <mxGeometry x="1080" y="350" width="40" height="40" as="geometry" />
        </mxCell>
        <mxCell id="XonXQQ8sFQjfn5fXN3I9-32" value="&lt;b&gt;&lt;font style=&quot;font-size: 19px;&quot;&gt;...&lt;/font&gt;&lt;/b&gt;" style="text;html=1;align=center;verticalAlign=middle;resizable=0;points=[];autosize=1;strokeColor=none;fillColor=none;rotation=90;" vertex="1" parent="1">
          <mxGeometry x="1000" y="350" width="40" height="40" as="geometry" />
        </mxCell>
        <mxCell id="XonXQQ8sFQjfn5fXN3I9-33" value="D&lt;sup&gt;2&lt;/sup&gt;" style="ellipse;whiteSpace=wrap;html=1;aspect=fixed;fillColor=#dae8fc;strokeColor=#6c8ebf;" vertex="1" parent="1">
          <mxGeometry x="1090" y="320" width="30" height="30" as="geometry" />
        </mxCell>
        <mxCell id="XonXQQ8sFQjfn5fXN3I9-34" value="D&lt;sup&gt;1&lt;/sup&gt;" style="ellipse;whiteSpace=wrap;html=1;aspect=fixed;fillColor=#dae8fc;strokeColor=#6c8ebf;" vertex="1" parent="1">
          <mxGeometry x="1090" y="275" width="30" height="30" as="geometry" />
        </mxCell>
        <mxCell id="XonXQQ8sFQjfn5fXN3I9-35" value="Pretrained&lt;div&gt;LLM&lt;/div&gt;" style="sketch=0;outlineConnect=0;fontColor=#232F3E;gradientColor=none;fillColor=#7AA116;strokeColor=none;dashed=0;verticalLabelPosition=top;verticalAlign=bottom;align=center;html=1;fontSize=12;fontStyle=0;aspect=fixed;pointerEvents=1;shape=mxgraph.aws4.iot_sitewise_asset_model;labelPosition=center;" vertex="1" parent="1">
          <mxGeometry x="1200" y="270" width="60" height="60" as="geometry" />
        </mxCell>
        <mxCell id="XonXQQ8sFQjfn5fXN3I9-36" value="" style="group" vertex="1" connectable="0" parent="1">
          <mxGeometry x="1090" y="460" width="47.75" height="37.75" as="geometry" />
        </mxCell>
        <mxCell id="XonXQQ8sFQjfn5fXN3I9-37" value="" style="html=1;verticalLabelPosition=bottom;align=center;labelBackgroundColor=#ffffff;verticalAlign=top;strokeWidth=2;strokeColor=#0080F0;shadow=0;dashed=0;shape=mxgraph.ios7.icons.back;direction=north;flipV=0;flipH=1;" vertex="1" parent="XonXQQ8sFQjfn5fXN3I9-36">
          <mxGeometry x="22.25" width="25.5" height="30" as="geometry" />
        </mxCell>
        <mxCell id="XonXQQ8sFQjfn5fXN3I9-38" value="" style="html=1;verticalLabelPosition=bottom;align=center;labelBackgroundColor=#ffffff;verticalAlign=top;strokeWidth=2;strokeColor=#0080F0;shadow=0;dashed=0;shape=mxgraph.ios7.icons.back;direction=north;flipV=1;flipH=0;" vertex="1" parent="XonXQQ8sFQjfn5fXN3I9-36">
          <mxGeometry y="7.75" width="25.5" height="30" as="geometry" />
        </mxCell>
        <mxCell id="XonXQQ8sFQjfn5fXN3I9-39" style="edgeStyle=orthogonalEdgeStyle;rounded=0;orthogonalLoop=1;jettySize=auto;html=1;" edge="1" parent="1">
          <mxGeometry relative="1" as="geometry">
            <mxPoint x="1090" y="480" as="targetPoint" />
            <mxPoint x="930" y="400" as="sourcePoint" />
            <Array as="points">
              <mxPoint x="930" y="480" />
            </Array>
          </mxGeometry>
        </mxCell>
        <mxCell id="XonXQQ8sFQjfn5fXN3I9-40" style="edgeStyle=orthogonalEdgeStyle;rounded=0;orthogonalLoop=1;jettySize=auto;html=1;entryX=0.333;entryY=-0.088;entryDx=0;entryDy=0;entryPerimeter=0;" edge="1" parent="1" source="XonXQQ8sFQjfn5fXN3I9-35" target="XonXQQ8sFQjfn5fXN3I9-37">
          <mxGeometry relative="1" as="geometry">
            <Array as="points">
              <mxPoint x="1230" y="480" />
            </Array>
          </mxGeometry>
        </mxCell>
        <mxCell id="XonXQQ8sFQjfn5fXN3I9-41" value="Finetuning" style="text;html=1;align=center;verticalAlign=middle;resizable=0;points=[];autosize=1;strokeColor=none;fillColor=none;" vertex="1" parent="1">
          <mxGeometry x="1073.88" y="430" width="80" height="30" as="geometry" />
        </mxCell>
        <mxCell id="XonXQQ8sFQjfn5fXN3I9-42" value="" style="edgeStyle=orthogonalEdgeStyle;rounded=0;orthogonalLoop=1;jettySize=auto;html=1;" edge="1" parent="1" source="XonXQQ8sFQjfn5fXN3I9-43" target="XonXQQ8sFQjfn5fXN3I9-59">
          <mxGeometry relative="1" as="geometry" />
        </mxCell>
        <mxCell id="XonXQQ8sFQjfn5fXN3I9-43" value="Finetuned&lt;div&gt;LLM&lt;/div&gt;" style="sketch=0;outlineConnect=0;fontColor=#232F3E;gradientColor=none;fillColor=#01A88D;strokeColor=none;dashed=0;verticalLabelPosition=bottom;verticalAlign=top;align=center;html=1;fontSize=12;fontStyle=0;aspect=fixed;pointerEvents=1;shape=mxgraph.aws4.sagemaker_model;" vertex="1" parent="1">
          <mxGeometry x="1083.88" y="560" width="60" height="60" as="geometry" />
        </mxCell>
        <mxCell id="XonXQQ8sFQjfn5fXN3I9-44" style="edgeStyle=orthogonalEdgeStyle;rounded=0;orthogonalLoop=1;jettySize=auto;html=1;" edge="1" parent="1" source="XonXQQ8sFQjfn5fXN3I9-45">
          <mxGeometry relative="1" as="geometry">
            <mxPoint x="1080" y="590" as="targetPoint" />
          </mxGeometry>
        </mxCell>
        <mxCell id="XonXQQ8sFQjfn5fXN3I9-45" value="Retrieval" style="rounded=1;whiteSpace=wrap;html=1;" vertex="1" parent="1">
          <mxGeometry x="630" y="570" width="80" height="40" as="geometry" />
        </mxCell>
        <mxCell id="XonXQQ8sFQjfn5fXN3I9-46" style="edgeStyle=orthogonalEdgeStyle;rounded=0;orthogonalLoop=1;jettySize=auto;html=1;exitX=0.855;exitY=0;exitDx=0;exitDy=2.271659291585292;exitPerimeter=0;entryX=0.75;entryY=1;entryDx=0;entryDy=0;" edge="1" parent="1" target="XonXQQ8sFQjfn5fXN3I9-45">
          <mxGeometry relative="1" as="geometry">
            <mxPoint x="690" y="662" as="sourcePoint" />
          </mxGeometry>
        </mxCell>
        <mxCell id="XonXQQ8sFQjfn5fXN3I9-47" style="edgeStyle=orthogonalEdgeStyle;rounded=0;orthogonalLoop=1;jettySize=auto;html=1;entryX=0.145;entryY=0;entryDx=0;entryDy=2.271659291585292;entryPerimeter=0;exitX=0.25;exitY=1;exitDx=0;exitDy=0;" edge="1" parent="1" source="XonXQQ8sFQjfn5fXN3I9-45">
          <mxGeometry relative="1" as="geometry">
            <mxPoint x="650" y="662" as="targetPoint" />
          </mxGeometry>
        </mxCell>
        <mxCell id="XonXQQ8sFQjfn5fXN3I9-48" value="" style="edgeStyle=orthogonalEdgeStyle;rounded=0;orthogonalLoop=1;jettySize=auto;html=1;" edge="1" parent="1" source="XonXQQ8sFQjfn5fXN3I9-49" target="XonXQQ8sFQjfn5fXN3I9-45">
          <mxGeometry relative="1" as="geometry" />
        </mxCell>
        <mxCell id="XonXQQ8sFQjfn5fXN3I9-49" value="C" style="ellipse;whiteSpace=wrap;html=1;aspect=fixed;fillColor=#f8cecc;strokeColor=#b85450;" vertex="1" parent="1">
          <mxGeometry x="560" y="575" width="30" height="30" as="geometry" />
        </mxCell>
        <mxCell id="XonXQQ8sFQjfn5fXN3I9-50" value="C&lt;sub&gt;1&lt;/sub&gt;" style="ellipse;whiteSpace=wrap;html=1;aspect=fixed;fillColor=#f8cecc;strokeColor=#b85450;" vertex="1" parent="1">
          <mxGeometry x="750" y="550" width="30" height="30" as="geometry" />
        </mxCell>
        <mxCell id="XonXQQ8sFQjfn5fXN3I9-51" value="D&lt;span style=&quot;font-size: 10px;&quot;&gt;1&lt;/span&gt;" style="ellipse;whiteSpace=wrap;html=1;aspect=fixed;fillColor=#dae8fc;strokeColor=#6c8ebf;" vertex="1" parent="1">
          <mxGeometry x="790" y="550" width="30" height="30" as="geometry" />
        </mxCell>
        <mxCell id="XonXQQ8sFQjfn5fXN3I9-52" value="C&lt;sub&gt;2&lt;/sub&gt;" style="ellipse;whiteSpace=wrap;html=1;aspect=fixed;fillColor=#f8cecc;strokeColor=#b85450;" vertex="1" parent="1">
          <mxGeometry x="830" y="550" width="30" height="30" as="geometry" />
        </mxCell>
        <mxCell id="XonXQQ8sFQjfn5fXN3I9-53" value="D&lt;sub&gt;2&lt;/sub&gt;" style="ellipse;whiteSpace=wrap;html=1;aspect=fixed;fillColor=#dae8fc;strokeColor=#6c8ebf;" vertex="1" parent="1">
          <mxGeometry x="870" y="550" width="30" height="30" as="geometry" />
        </mxCell>
        <mxCell id="XonXQQ8sFQjfn5fXN3I9-54" value="C&lt;sub&gt;n&lt;/sub&gt;" style="ellipse;whiteSpace=wrap;html=1;aspect=fixed;fillColor=#f8cecc;strokeColor=#b85450;" vertex="1" parent="1">
          <mxGeometry x="930" y="550" width="30" height="30" as="geometry" />
        </mxCell>
        <mxCell id="XonXQQ8sFQjfn5fXN3I9-55" value="D&lt;sub&gt;n&lt;/sub&gt;" style="ellipse;whiteSpace=wrap;html=1;aspect=fixed;fillColor=#dae8fc;strokeColor=#6c8ebf;" vertex="1" parent="1">
          <mxGeometry x="970" y="550" width="30" height="30" as="geometry" />
        </mxCell>
        <mxCell id="XonXQQ8sFQjfn5fXN3I9-56" value="&lt;b&gt;&lt;font style=&quot;font-size: 19px;&quot;&gt;...&lt;/font&gt;&lt;/b&gt;" style="text;html=1;align=center;verticalAlign=middle;resizable=0;points=[];autosize=1;strokeColor=none;fillColor=none;" vertex="1" parent="1">
          <mxGeometry x="895" y="540" width="40" height="40" as="geometry" />
        </mxCell>
        <mxCell id="XonXQQ8sFQjfn5fXN3I9-57" value="C" style="ellipse;whiteSpace=wrap;html=1;aspect=fixed;fillColor=#f8cecc;strokeColor=#b85450;" vertex="1" parent="1">
          <mxGeometry x="1010" y="550" width="30" height="30" as="geometry" />
        </mxCell>
        <mxCell id="XonXQQ8sFQjfn5fXN3I9-58" style="edgeStyle=orthogonalEdgeStyle;rounded=0;orthogonalLoop=1;jettySize=auto;html=1;" edge="1" parent="1" target="XonXQQ8sFQjfn5fXN3I9-43">
          <mxGeometry relative="1" as="geometry">
            <mxPoint x="1114" y="500" as="sourcePoint" />
          </mxGeometry>
        </mxCell>
        <mxCell id="XonXQQ8sFQjfn5fXN3I9-59" value="D" style="ellipse;whiteSpace=wrap;html=1;aspect=fixed;fillColor=#dae8fc;strokeColor=#6c8ebf;" vertex="1" parent="1">
          <mxGeometry x="1200" y="575" width="30" height="30" as="geometry" />
        </mxCell>
        <mxCell id="XonXQQ8sFQjfn5fXN3I9-60" value="VDB" style="shape=cylinder3;whiteSpace=wrap;html=1;boundedLbl=1;backgroundOutline=1;size=7.833307902018248;" vertex="1" parent="1">
          <mxGeometry x="642.5" y="660" width="55" height="40" as="geometry" />
        </mxCell>
        <mxCell id="XonXQQ8sFQjfn5fXN3I9-61" value="C&lt;sup&gt;1&lt;/sup&gt;&lt;sub&gt;1&lt;/sub&gt;" style="ellipse;whiteSpace=wrap;html=1;aspect=fixed;fillColor=#f8cecc;strokeColor=#b85450;" vertex="1" parent="1">
          <mxGeometry x="760" y="275" width="30" height="30" as="geometry" />
        </mxCell>
        <mxCell id="XonXQQ8sFQjfn5fXN3I9-62" value="D&lt;sup&gt;1&lt;/sup&gt;&lt;span style=&quot;font-size: 10px;&quot;&gt;1&lt;/span&gt;" style="ellipse;whiteSpace=wrap;html=1;aspect=fixed;fillColor=#dae8fc;strokeColor=#6c8ebf;" vertex="1" parent="1">
          <mxGeometry x="800" y="275" width="30" height="30" as="geometry" />
        </mxCell>
        <mxCell id="XonXQQ8sFQjfn5fXN3I9-63" value="C&lt;sup&gt;1&lt;/sup&gt;&lt;sub&gt;2&lt;/sub&gt;" style="ellipse;whiteSpace=wrap;html=1;aspect=fixed;fillColor=#f8cecc;strokeColor=#b85450;" vertex="1" parent="1">
          <mxGeometry x="840" y="275" width="30" height="30" as="geometry" />
        </mxCell>
        <mxCell id="XonXQQ8sFQjfn5fXN3I9-64" value="D&lt;sup&gt;1&lt;/sup&gt;&lt;sub&gt;2&lt;/sub&gt;" style="ellipse;whiteSpace=wrap;html=1;aspect=fixed;fillColor=#dae8fc;strokeColor=#6c8ebf;" vertex="1" parent="1">
          <mxGeometry x="880" y="275" width="30" height="30" as="geometry" />
        </mxCell>
        <mxCell id="XonXQQ8sFQjfn5fXN3I9-65" value="C&lt;sup&gt;1&lt;/sup&gt;&lt;sub&gt;n&lt;/sub&gt;" style="ellipse;whiteSpace=wrap;html=1;aspect=fixed;fillColor=#f8cecc;strokeColor=#b85450;" vertex="1" parent="1">
          <mxGeometry x="940" y="275" width="30" height="30" as="geometry" />
        </mxCell>
        <mxCell id="XonXQQ8sFQjfn5fXN3I9-66" value="D&lt;sup&gt;1&lt;/sup&gt;&lt;sub&gt;n&lt;/sub&gt;" style="ellipse;whiteSpace=wrap;html=1;aspect=fixed;fillColor=#dae8fc;strokeColor=#6c8ebf;" vertex="1" parent="1">
          <mxGeometry x="980" y="275" width="30" height="30" as="geometry" />
        </mxCell>
        <mxCell id="XonXQQ8sFQjfn5fXN3I9-67" value="C&lt;sup&gt;1&lt;/sup&gt;" style="ellipse;whiteSpace=wrap;html=1;aspect=fixed;fillColor=#f8cecc;strokeColor=#b85450;" vertex="1" parent="1">
          <mxGeometry x="1020" y="275" width="30" height="30" as="geometry" />
        </mxCell>
        <mxCell id="XonXQQ8sFQjfn5fXN3I9-68" value="C&lt;sup&gt;2&lt;/sup&gt;&lt;sub&gt;1&lt;/sub&gt;" style="ellipse;whiteSpace=wrap;html=1;aspect=fixed;fillColor=#f8cecc;strokeColor=#b85450;" vertex="1" parent="1">
          <mxGeometry x="760" y="320" width="30" height="30" as="geometry" />
        </mxCell>
        <mxCell id="XonXQQ8sFQjfn5fXN3I9-69" value="D&lt;sup&gt;2&lt;/sup&gt;&lt;span style=&quot;font-size: 10px;&quot;&gt;1&lt;/span&gt;" style="ellipse;whiteSpace=wrap;html=1;aspect=fixed;fillColor=#dae8fc;strokeColor=#6c8ebf;" vertex="1" parent="1">
          <mxGeometry x="800" y="320" width="30" height="30" as="geometry" />
        </mxCell>
        <mxCell id="XonXQQ8sFQjfn5fXN3I9-70" value="C&lt;sup&gt;2&lt;/sup&gt;&lt;sub&gt;2&lt;/sub&gt;" style="ellipse;whiteSpace=wrap;html=1;aspect=fixed;fillColor=#f8cecc;strokeColor=#b85450;" vertex="1" parent="1">
          <mxGeometry x="840" y="320" width="30" height="30" as="geometry" />
        </mxCell>
        <mxCell id="XonXQQ8sFQjfn5fXN3I9-71" value="D2&lt;sub&gt;2&lt;/sub&gt;" style="ellipse;whiteSpace=wrap;html=1;aspect=fixed;fillColor=#dae8fc;strokeColor=#6c8ebf;" vertex="1" parent="1">
          <mxGeometry x="880" y="320" width="30" height="30" as="geometry" />
        </mxCell>
        <mxCell id="XonXQQ8sFQjfn5fXN3I9-72" value="C&lt;sup&gt;2&lt;/sup&gt;&lt;sub&gt;n&lt;/sub&gt;" style="ellipse;whiteSpace=wrap;html=1;aspect=fixed;fillColor=#f8cecc;strokeColor=#b85450;" vertex="1" parent="1">
          <mxGeometry x="940" y="320" width="30" height="30" as="geometry" />
        </mxCell>
        <mxCell id="XonXQQ8sFQjfn5fXN3I9-73" value="D&lt;sup&gt;2&lt;/sup&gt;&lt;sub&gt;n&lt;/sub&gt;" style="ellipse;whiteSpace=wrap;html=1;aspect=fixed;fillColor=#dae8fc;strokeColor=#6c8ebf;" vertex="1" parent="1">
          <mxGeometry x="980" y="320" width="30" height="30" as="geometry" />
        </mxCell>
        <mxCell id="XonXQQ8sFQjfn5fXN3I9-74" value="C&lt;span style=&quot;font-size: 10px;&quot;&gt;&lt;sup&gt;2&lt;/sup&gt;&lt;/span&gt;" style="ellipse;whiteSpace=wrap;html=1;aspect=fixed;fillColor=#f8cecc;strokeColor=#b85450;" vertex="1" parent="1">
          <mxGeometry x="1020" y="320" width="30" height="30" as="geometry" />
        </mxCell>
        <mxCell id="XonXQQ8sFQjfn5fXN3I9-75" value="&lt;b&gt;&lt;font style=&quot;font-size: 19px;&quot;&gt;...&lt;/font&gt;&lt;/b&gt;" style="text;html=1;align=center;verticalAlign=middle;resizable=0;points=[];autosize=1;strokeColor=none;fillColor=none;" vertex="1" parent="1">
          <mxGeometry x="900" y="310" width="40" height="40" as="geometry" />
        </mxCell>
        <mxCell id="XonXQQ8sFQjfn5fXN3I9-76" value="&lt;b&gt;&lt;font style=&quot;font-size: 19px;&quot;&gt;...&lt;/font&gt;&lt;/b&gt;" style="text;html=1;align=center;verticalAlign=middle;resizable=0;points=[];autosize=1;strokeColor=none;fillColor=none;" vertex="1" parent="1">
          <mxGeometry x="900" y="265" width="40" height="40" as="geometry" />
        </mxCell>
        <mxCell id="XonXQQ8sFQjfn5fXN3I9-77" value="&lt;div&gt;Offline&lt;/div&gt;" style="shape=umlFrame;whiteSpace=wrap;html=1;pointerEvents=0;recursiveResize=0;container=0;collapsible=0;width=74;dashed=1;fillColor=none;height=30;flipH=1;" vertex="1" parent="1">
          <mxGeometry x="220" y="180" width="1060" height="330" as="geometry" />
        </mxCell>
        <mxCell id="XonXQQ8sFQjfn5fXN3I9-78" value="&lt;div&gt;Online&lt;/div&gt;" style="shape=umlFrame;whiteSpace=wrap;html=1;pointerEvents=0;recursiveResize=0;container=0;collapsible=0;width=74;dashed=1;fillColor=none;height=30;" vertex="1" parent="1">
          <mxGeometry x="533.88" y="530" width="716.12" height="180" as="geometry" />
        </mxCell>
      </root>
    </mxGraphModel>
  </diagram>
</mxfile>
